<svg xmlns="http://www.w3.org/2000/svg" viewBox="0 0 2000 2000"><defs><style>.cls-1{fill:none;}.cls-2{fill-rule:evenodd;}.cls-3{fill:#d6dee5;stroke:#ccc;stroke-linecap:round;stroke-linejoin:round;stroke-width:6.87px;}.cls-4{fill:#fff;}</style></defs><g id="Layer_2" data-name="Layer 2"><g id="bounding"><rect class="cls-1" width="2000" height="2000"/></g><g id="CounterSocial_CS_Primary" data-name="CounterSocial CS Primary"><path id="bg-S" class="cls-2" d="M996,1387.65V1014.36l301.6-.07c86.66,10.59,173.82,12,261.7,0h228l.07,373.43c0,62.45-50.22,113.28-111.84,113.28H1107.91C1046.15,1501,996,1450.24,996,1387.65Zm.07-445.08L996,610c0-62.45,50.15-113.21,111.91-113.21h567.56c61.76,0,111.91,50.76,111.91,113.28V942.57h-336c-88.17-11.76-167.68-13.22-234.86,0Z"/><path class="cls-3" d="M213.52,999q0-102.42,29-187.79t85.32-145.89q56.37-60.67,138.26-94.74T653.9,536.36q35.88,0,68.28,1.7a611.8,611.8,0,0,1,64,6.87A484.61,484.61,0,0,1,851,560.28c22.22,6.87,47,15.35,74.3,25.61a394.3,394.3,0,0,1-10.26,115.19A471.07,471.07,0,0,1,872.4,813q-29-10.31-52.08-16.28c-15.36-4-29.86-7.13-43.52-9.33A335.7,335.7,0,0,0,736.68,783c-13.06-.51-27-.85-41.81-.85q-81.95,0-135.71,48.69T505.38,999q0,63.22,16.2,105t42.67,65.74a157.26,157.26,0,0,0,61.49,34.1A264.82,264.82,0,0,0,700,1214.06q49.49,0,86.26-8.57t86.18-27.31q29,46,46.05,103.31T935.59,1412q-78.63,30.8-143.43,39.28a995.61,995.61,0,0,1-129.69,8.56q-109.29,0-192.88-32.48T328.7,1334.33q-57.12-60.55-86.17-145T213.52,999Z"/></g><g id="CounterSocial_CS_Black" data-name="CounterSocial CS Black"><path class="cls-4" d="M1214.6,943h244.71q-44.38-15.59-81.93-31.88-38.7-16.77-65-38T1286.13,814q0-54,29.93-75.92t94.18-21.9q54,0,101.47,12.41t81,28.47l27.74-96.36q-39.42-19-92.71-32.85T1395.63,614q-106.59,0-166.44,48.91t-59.86,154q0,64.27,26.28,102.21A226.8,226.8,0,0,0,1214.6,943Z"/><path class="cls-4" d="M1580.27,1014H1326.82q9.08,3.5,18.44,6.62,46,15.33,84.69,32.12t65,41.61q26.28,24.84,26.28,68.62,0,64.26-40.88,89.06t-103.67,24.82a381.39,381.39,0,0,1-109.5-16.06q-54-16.05-87.6-35l-35,99.29q39.42,21.9,97.82,38T1384,1379.06q64.24,0,111.7-16.79t79.57-46a177.68,177.68,0,0,0,47.45-70.09q15.33-40.86,15.33-87.6,0-65.7-26.28-105.85A240.92,240.92,0,0,0,1580.27,1014Z"/></g></g></svg>